0.11m3min_grf.mot
version=1
nRows=22
nColumns 19
inDegrees=yes
endheader
time	1_ground_force_vx	1_ground_force_vy	1_ground_force_vz	1_ground_force_px	1_ground_force_py	1_ground_force_pz	1_ground_torque_x	1_ground_torque_y	1_ground_torque_z	2_ground_force_vx	2_ground_force_vy	2_ground_force_vz	2_ground_force_px	2_ground_force_py	2_ground_force_pz	2_ground_torque_x	2_ground_torque_y	2_ground_torque_z
            1.253500	           -0.323555	            1.446192	           -0.955994	           -0.233013	            0.005581	           -0.255695	            0.472210	            0.110186	            0.135951	           -0.141591	            0.365446	            0.658367	           -0.232311	            0.006130	           -0.833667	           -0.037163	           -0.095200	            0.150480
            1.254000	           -0.414411	            1.264532	           -0.635548	           -0.233013	            0.005581	           -0.255695	            0.308407	            0.110204	            0.113656	           -0.094782	            0.365950	            0.564491	           -0.232311	            0.006130	           -0.833667	           -0.074887	           -0.057391	            0.112931
            1.254500	           -0.642778	            0.361980	           -0.363709	           -0.233013	            0.005581	           -0.255695	            0.428593	            0.082482	            0.084699	           -0.372058	           -0.738616	            0.185244	           -0.232311	            0.006130	           -0.833667	            0.019124	           -0.076092	            0.150524
            1.255000	           -0.460107	            1.084061	           -0.590351	           -0.233013	            0.005581	           -0.255695	            0.268866	            0.175122	            0.055690	           -0.328011	           -0.000682	           -0.140645	           -0.232311	            0.006130	           -0.833667	           -0.093611	           -0.085481	            0.018587
            1.255500	           -0.459700	            0.722940	           -0.454330	           -0.233013	            0.005581	           -0.255695	            0.263156	            0.082853	            0.017725	           -0.325976	           -0.553462	           -0.048760	           -0.232311	            0.006130	           -0.833667	           -0.018266	           -0.132742	            0.093787
            1.256000	           -0.369039	            0.724727	           -0.867260	           -0.233013	            0.005581	           -0.255695	            0.280996	            0.082481	            0.115579	           -0.376793	            0.551092	            0.002131	           -0.232311	            0.006130	           -0.833667	           -0.093475	           -0.123291	            0.018452
            1.256500	           -0.368730	            0.904403	           -0.728920	           -0.233013	            0.005581	           -0.255695	            0.162244	            0.073462	            0.059435	           -0.136397	           -1.106736	            0.371542	           -0.232311	            0.006130	           -0.833667	            0.056748	           -0.103911	            0.037305
            1.257000	            0.089343	            0.364481	           -0.915800	           -0.233013	            0.005581	           -0.255695	            0.207867	            0.064673	            0.022456	           -0.278838	           -0.555636	            0.608214	           -0.232311	            0.006130	           -0.833667	            0.037869	           -0.084871	           -0.019170
            1.257500	           -0.093070	            0.723208	           -0.501096	           -0.233013	            0.005581	           -0.255695	            0.246345	            0.009150	            0.014291	           -0.088718	           -1.292055	            0.746290	           -0.232311	            0.006130	           -0.833667	            0.056584	           -0.047531	            0.131759
            1.258000	           -0.184040	            0.541745	           -0.226506	           -0.233013	            0.005581	           -0.255695	            0.159538	            0.009262	           -0.026993	           -0.325147	           -0.738949	            0.326008	           -0.232311	            0.006130	           -0.833667	           -0.037434	           -0.037946	           -0.000119
            1.258500	           -0.045795	            0.360326	            0.047516	           -0.233013	            0.005581	           -0.255695	            0.298391	            0.018122	            0.091360	           -0.469164	            0.182457	            0.000856	           -0.232311	            0.006130	           -0.833667	           -0.037255	           -0.085277	            0.018563
            1.259000	           -0.183144	           -0.000429	            0.092167	           -0.233013	            0.005581	           -0.255695	            0.221421	            0.036774	            0.029385	           -0.232920	           -0.369142	           -0.001214	           -0.232311	            0.006130	           -0.833667	           -0.093348	           -0.151851	            0.074901
            1.259500	            0.045633	           -0.720464	           -0.140773	           -0.233013	            0.005581	           -0.255695	            0.118788	           -0.045856	           -0.073704	           -0.323941	           -1.106241	            0.043125	           -0.232311	            0.006130	           -0.833667	            0.000631	           -0.170283	            0.037093
            1.260000	            0.137382	            0.180489	           -0.045424	           -0.233013	            0.005581	           -0.255695	            0.170903	           -0.037040	            0.042871	           -0.185344	           -0.553624	            0.138893	           -0.232311	            0.006130	           -0.833667	           -0.018282	           -0.141791	           -0.019348
            1.260500	            0.045615	            0.000402	           -0.091826	           -0.233013	            0.005581	           -0.255695	            0.078879	           -0.082916	           -0.054991	           -0.327785	           -0.002523	            0.375564	           -0.232311	            0.006130	           -0.833667	           -0.018438	           -0.076294	            0.169390
            1.261000	            0.137742	           -0.540967	            0.043196	           -0.233013	            0.005581	           -0.255695	            0.204770	           -0.055114	           -0.051256	           -0.280147	           -0.187506	            0.656456	           -0.232311	            0.006130	           -0.833667	           -0.037477	           -0.028427	           -0.018935
            1.261500	           -0.136519	           -0.542396	            0.364870	           -0.233013	            0.005581	           -0.255695	            0.097378	           -0.046329	            0.012513	           -0.234647	            0.181127	            0.610822	           -0.232311	            0.006130	           -0.833667	            0.056449	           -0.018904	            0.056459
            1.262000	           -0.182674	            0.539385	            0.323765	           -0.233013	            0.005581	           -0.255695	            0.154673	           -0.064344	           -0.102489	           -0.275536	           -1.476210	            0.558000	           -0.232311	            0.006130	           -0.833667	           -0.056237	           -0.028696	            0.037623
            1.262500	           -0.091281	            0.900328	            0.233372	           -0.233013	            0.005581	           -0.255695	            0.102085	           -0.027422	           -0.079505	           -0.187920	            0.182300	            0.329233	           -0.232311	            0.006130	           -0.833667	           -0.037135	           -0.122954	           -0.019273
            1.263000	            0.138017	           -0.181026	            0.182309	           -0.233013	            0.005581	           -0.255695	            0.142626	           -0.000145	            0.061910	            0.049570	           -0.736926	            0.138136	           -0.232311	            0.006130	           -0.833667	            0.019434	           -0.179533	           -0.000649
            1.263500	            0.275465	           -0.361068	            0.135339	           -0.233013	            0.005581	           -0.255695	            0.088079	           -0.054990	           -0.063906	           -0.232941	           -0.368975	           -0.048143	           -0.232311	            0.006130	           -0.833667	           -0.074478	           -0.170823	            0.112526
            1.264000	            0.321048	           -0.180400	            0.044287	           -0.233013	            0.005581	           -0.255695	            0.204566	           -0.101247	           -0.043647	           -0.466608	           -0.553300	           -0.236412	           -0.232311	            0.006130	           -0.833667	           -0.018419	           -0.094796	            0.056221
